<?xml version="1.0" standalone="no"?>
<!DOCTYPE svg PUBLIC "-//W3C//DTD SVG 20010904//EN"
 "http://www.w3.org/TR/2001/REC-SVG-20010904/DTD/svg10.dtd">
<svg version="1.0" xmlns="http://www.w3.org/2000/svg"
 width="200.000000pt" height="200.000000pt" viewBox="0 0 200.000000 200.000000"
 preserveAspectRatio="xMidYMid meet">
<metadata>
Created by potrace 1.11, written by Peter Selinger 2001-2013
</metadata>
<g transform="translate(0.000000,200.000000) scale(0.100000,-0.100000)"
fill="#000000" stroke="none">
<path d="M220 1445 l0 -145 95 0 95 0 0 45 0 45 225 0 225 0 0 -130 0 -130
-90 0 -90 0 0 35 0 35 -95 0 -95 0 0 -185 0 -185 95 0 95 0 0 35 0 35 90 0 90
0 0 -150 0 -150 -225 0 -225 0 0 50 0 50 -95 0 -95 0 0 -145 0 -146 648 3 647
3 57 28 c197 97 269 344 152 519 -40 59 -40 61 -14 98 33 47 50 108 50 185 0
121 -48 214 -144 280 -95 64 -101 65 -783 65 l-613 0 0 -145z m1270 -70 c39
-20 60 -63 60 -120 0 -38 -6 -52 -34 -83 l-34 -37 -181 -3 -181 -3 0 130 0
131 170 0 c133 0 177 -3 200 -15z m20 -501 c40 -34 60 -74 60 -119 0 -52 -23
-99 -61 -126 -32 -23 -43 -24 -211 -27 l-178 -4 0 151 0 151 179 0 c179 0 180
0 211 -26z"/>
</g>
</svg>
